<svg width="1447" height="766" viewBox="0 0 1447 766" fill="none" xmlns="http://www.w3.org/2000/svg">
<line x1="1421.83" y1="1" x2="1421.83" y2="765.358" stroke="#303030"/>
<line x1="1322.09" y1="1" x2="1322.09" y2="765.358" stroke="#303030"/>
<line x1="1222.35" y1="1" x2="1222.35" y2="765.358" stroke="#303030"/>
<line x1="1122.6" y1="1" x2="1122.6" y2="765.358" stroke="#303030"/>
<line x1="1022.86" y1="1" x2="1022.86" y2="765.358" stroke="#303030"/>
<line x1="923.118" y1="1" x2="923.118" y2="765.358" stroke="#303030"/>
<line x1="823.377" y1="1" x2="823.377" y2="765.358" stroke="#303030"/>
<line x1="723.636" y1="1" x2="723.636" y2="765.358" stroke="#303030"/>
<line x1="623.891" y1="1" x2="623.891" y2="765.358" stroke="#303030"/>
<line x1="524.148" y1="1" x2="524.148" y2="765.358" stroke="#303030"/>
<line x1="424.406" y1="1" x2="424.406" y2="765.358" stroke="#303030"/>
<line x1="324.664" y1="1" x2="324.664" y2="765.358" stroke="#303030"/>
<line x1="224.922" y1="1" x2="224.922" y2="765.358" stroke="#303030"/>
<line x1="125.179" y1="1" x2="125.179" y2="765.358" stroke="#303030"/>
<line x1="25.4365" y1="1" x2="25.4365" y2="765.358" stroke="#303030"/>
<line x1="2.80217e-08" y1="562.069" x2="1447" y2="562.07" stroke="#303030"/>
<line x1="2.80217e-08" y1="374.88" x2="1447" y2="374.88" stroke="#303030"/>
<line x1="2.80217e-08" y1="187.689" x2="1447" y2="187.69" stroke="#303030"/>
<line x1="4.37114e-08" y1="0.5" x2="1447" y2="0.500126" stroke="#303030"/>
</svg>
