<svg width="744" height="780" viewBox="0 0 744 780" fill="none" xmlns="http://www.w3.org/2000/svg">
<mask id="mask0_2035_58" style="mask-type:luminance" maskUnits="userSpaceOnUse" x="52" y="30" width="640" height="720">
<path d="M691.3 30.875H52.7002V749.125H691.3V30.875Z" fill="white"/>
</mask>
<g mask="url(#mask0_2035_58)">
<path fill-rule="evenodd" clip-rule="evenodd" d="M396.4 382.306C396.265 392.62 398.755 402.786 403.613 411.756C403.725 411.961 403.839 412.163 403.955 412.365C404.002 412.449 404.05 412.532 404.098 412.617C405.106 414.152 405.865 415.467 406.526 416.613C408.236 419.578 409.289 421.404 412.308 422.948C416.493 425.088 421.362 425.435 425.948 424.647C430.534 423.86 436.696 421.217 440.905 419.148C438.774 425.164 436.823 431.24 435.052 437.378C433.406 443.067 431.934 449.345 434.181 454.806C434.505 455.586 434.894 456.333 435.344 457.04C438.969 462.721 446.215 465.215 452.725 467.072C457.099 468.315 461.693 469.558 466.166 469.488C468.233 469.484 470.286 469.133 472.246 468.449C479.06 466.002 483.555 459.345 487.495 453.02C497.739 436.56 507.436 419.612 514.581 401.437C521.725 383.261 526.288 363.749 525.943 344.094C525.741 332.475 523.647 320.435 517.117 311.025C514.777 307.665 511.933 304.725 508.697 302.317V302.309C500.366 296.046 489.657 293.08 479.225 293.426C478.009 293.457 476.793 293.544 475.593 293.678C460.073 295.346 445.775 303.489 433.497 313.584C419.276 325.26 406.953 340.107 400.656 357.849C397.87 365.674 396.43 373.954 396.4 382.306ZM508.153 309.954C507.688 309.521 506.976 309.564 506.563 310.052C506.15 310.538 506.191 311.284 506.656 311.717C514.206 318.762 517.959 329.556 518.801 340.328C519.645 351.114 517.871 361.94 516.071 372.8C515.964 373.442 516.375 374.053 516.987 374.164C517.599 374.277 518.182 373.847 518.289 373.204C520.081 362.395 521.916 351.271 521.045 340.135C520.173 328.986 516.273 317.532 508.153 309.954Z" fill="#171717"/>
<path fill-rule="evenodd" clip-rule="evenodd" d="M535.549 279.108C531.757 298.093 532.495 317.716 540.127 335.38C547.76 353.044 561.349 367.938 578.153 376.05C594.956 384.162 614.859 385.256 632.151 378.355L632.323 378.45C638.105 366.377 643.272 353.991 647.8 341.343C655.493 319.835 672.169 267.717 662.067 244.412C657.099 235.049 647.418 231.233 637.639 230.879C627.102 230.497 616.4 233.278 606.426 236.591C595.998 240.123 585.917 244.697 576.324 250.25C561.891 258.494 548.468 268.462 535.535 279.084L535.549 279.108ZM656.335 248.896C656.245 248.25 655.674 247.804 655.059 247.896C654.444 247.99 654.017 248.588 654.106 249.234C656.881 269.332 653.878 289.989 648.061 309.487C642.24 328.995 633.688 347.479 625.123 365.972C624.852 366.558 625.085 367.264 625.645 367.549C626.203 367.833 626.877 367.589 627.149 367.003C635.702 348.537 644.331 329.895 650.209 310.192C656.09 290.479 659.172 269.453 656.335 248.896Z" fill="#9DFF50"/>
<path fill-rule="evenodd" clip-rule="evenodd" d="M482.37 601.043C489.402 582.057 491.39 561.325 490.46 540.963C486.229 543.794 481.957 546.543 477.644 549.208C458.462 561.063 438.463 571.401 417.814 580.137C408.118 584.253 398.239 588.415 388.087 591.192C387.696 591.627 387.313 592.059 386.931 592.492C388.199 611.942 378.84 631.777 363.313 642.509C362.885 642.805 362.451 643.096 362.017 643.388C360.209 644.603 358.394 645.821 356.934 647.465C355.125 649.503 353.932 652.408 354.645 655.09C355.531 658.441 358.938 660.272 362.105 661.329C373.946 665.302 386.757 664.059 399.073 662.257C399.209 662.238 399.343 662.218 399.477 662.197C399.624 662.175 399.772 662.152 399.92 662.132C415.793 659.762 431.861 656.332 445.723 647.913C462.714 637.59 475.263 620.241 482.37 601.043ZM477.356 593.092C477.578 592.483 477.287 591.801 476.707 591.568C476.125 591.335 475.475 591.641 475.253 592.249C463.724 623.881 434.902 647.862 402.9 652.453C402.285 652.542 401.854 653.137 401.938 653.782C402.022 654.428 402.59 654.88 403.206 654.792C436.022 650.085 465.533 625.529 477.356 593.092Z" fill="#9DFF50"/>
<path fill-rule="evenodd" clip-rule="evenodd" d="M332.023 570.606C324.593 581.575 317.516 593.122 314.191 606.112C313.216 609.944 313.126 615.082 316.573 616.708C318.617 617.676 320.986 616.865 323.035 615.913C332.123 611.665 339.808 604.752 347.343 597.927C350.067 595.476 352.784 593.011 355.493 590.533C375.531 572.263 395.179 553.286 410.053 530.303C413.063 525.637 415.922 520.704 417.033 515.196C418.039 510.249 417.596 501.327 412.567 498.621C407.419 495.835 398.008 499.597 393.288 501.91C384.957 505.969 378.233 512.878 371.906 519.856C359.631 533.385 348.15 547.681 337.526 562.667C335.666 565.292 333.831 567.938 332.023 570.606ZM399.058 536.291C399.443 535.78 399.361 535.038 398.872 534.634C398.385 534.229 397.677 534.316 397.291 534.827C381.189 556.168 362.133 574.864 340.755 590.294C340.243 590.664 340.114 591.399 340.466 591.936C340.819 592.473 341.519 592.608 342.032 592.239C363.594 576.674 382.816 557.817 399.058 536.291Z" fill="#9DFF50"/>
<path d="M479.225 293.394C478.437 291.844 477.641 290.246 476.853 288.618L477.628 288.212C480.477 283.966 484.167 280.416 488.446 277.804C492.725 275.193 497.491 273.581 502.42 273.08C507.348 272.578 512.321 273.198 516.999 274.899C521.677 276.599 525.95 279.338 529.524 282.93L530.067 283.638C527.193 286.054 524.339 288.493 521.504 290.955C517.279 294.622 513.076 298.312 508.896 302.026L508.701 302.309C500.37 296.046 489.661 293.08 479.229 293.426L479.225 293.394Z" fill="#171717"/>
<path d="M395.172 262.057C392.951 261.164 392.141 258.257 391.66 255.756L391.668 255.638C393.514 255.701 395.335 255.177 396.891 254.135C398.97 252.9 401.131 252.129 401.717 249.925H401.777C402.223 251.266 402.788 252.559 403.466 253.788C403.801 254.406 404.014 255.088 404.094 255.793C404.174 256.498 404.119 257.213 403.931 257.896C403.647 258.599 403.185 259.209 402.595 259.658C401.991 260.125 401.348 260.536 400.675 260.886C399.031 261.798 397.156 262.734 395.384 262.144C395.311 262.123 395.24 262.095 395.172 262.057Z" fill="#9DFF50"/>
<path d="M400.739 240.397C401.049 243.017 402.224 246.849 401.811 249.461C401.787 249.618 401.755 249.772 401.714 249.925C401.128 252.129 398.967 252.9 396.888 254.135C395.332 255.177 393.511 255.701 391.665 255.638C391.34 255.606 391.018 255.543 390.705 255.448C388.806 254.867 387.417 253.206 386.141 251.625C385.339 250.722 384.668 249.698 384.153 248.588C383.897 248.031 383.761 247.423 383.753 246.806C383.744 246.188 383.866 245.576 384.107 245.013C384.719 244.032 385.576 243.248 386.587 242.747C389.439 240.992 392.286 239.241 395.128 237.491C396.313 236.76 397.763 236.012 399.003 236.65C400.243 237.287 400.566 238.956 400.739 240.397Z" fill="#9DFF50"/>
<path d="M380.948 137.113C382.397 136.452 384.153 136.074 385.496 136.94C387.282 138.097 387.409 140.788 386.861 142.903C385.031 150.017 378.614 154.462 372.4 158.105C371.987 158.349 371.574 158.585 371.16 158.821L345.358 173.644C342.318 175.391 338.971 177.555 338.251 181.103C337.709 183.779 338.844 186.485 339.969 188.956C343.617 196.918 347.507 204.749 351.639 212.449L350.852 212.914C350.456 214.526 349.747 216.036 348.772 217.351C347.715 218.587 345.966 219.334 344.51 218.689C344.018 218.443 343.609 218.043 343.342 217.544C343.075 217.046 342.961 216.472 343.016 215.903C343.255 215.497 343.471 215.077 343.662 214.645C343.298 214.958 343.065 215.411 343.016 215.903C342.116 217.447 340.846 218.791 339.272 218.398C338.697 218.194 338.187 217.825 337.802 217.332C337.418 216.84 337.172 216.244 337.095 215.612C336.961 214.346 336.968 213.068 337.117 211.804C337.427 205.447 334.438 199.491 331.789 193.763C329.14 188.034 326.674 181.646 328.089 175.454C329.312 170.072 333.313 165.808 337.777 162.865C342.241 159.922 347.263 158.05 351.998 155.603C354.542 154.289 357.357 152.157 357.132 149.198C356.884 145.988 353.057 143.699 353.582 140.528C354.07 137.603 358.189 136.877 360.456 138.671C362.723 140.465 363.526 143.596 364.201 146.491C365.441 144.8 365.357 142.471 365.674 140.363C365.991 138.254 367.234 135.869 369.269 135.862C371.272 135.846 372.563 138.183 372.736 140.276C372.909 142.369 372.436 144.524 372.953 146.555C373.565 144.473 374.595 142.553 375.974 140.925C377.354 139.296 379.049 137.996 380.948 137.113Z" fill="#171717"/>
<path d="M368.152 207.209C367.665 208.111 367.363 209.109 367.266 210.141C367.169 211.172 367.279 212.213 367.589 213.197C367.899 214.181 368.401 215.086 369.063 215.854C369.727 216.622 370.536 217.237 371.439 217.658L371.469 217.729C369.78 218.608 367.889 218.966 366.013 218.76C362.118 218.272 358.62 214.708 358.561 210.593C358.53 208.515 359.619 206.195 361.57 205.793C362.794 205.541 364.017 206.092 365.225 206.415C366.176 206.667 367.157 206.77 368.137 206.722L368.152 207.209Z" fill="#171717"/>
<path d="M288.517 557.999C283.984 546.457 285.013 533.34 287.572 521.145C288.825 515.165 290.452 509.277 292.442 503.521C296.891 490.358 303.558 478.138 312.127 467.446C324.556 452.205 341.554 440.773 360.325 436.925C369.998 434.943 380.407 435.056 389.263 439.561C388.738 440.568 388.212 441.592 387.688 442.614C372.881 471.553 356.857 498.587 343.971 528.266L342.635 527.62C333.416 529.169 324.615 532.747 316.811 538.121C309.007 543.494 302.377 550.539 297.358 558.794C296.375 560.43 295.197 562.303 293.358 562.508C291.047 562.759 289.403 560.25 288.517 557.999Z" fill="#9DFF50"/>
<path d="M384.933 357.654C383.507 359.551 382.069 361.431 380.618 363.296C367.927 379.63 354.505 395.295 340.354 410.292L340.294 410.3C332.257 411.703 324.147 412.596 316.008 412.975C317.126 404.423 318.247 395.873 319.37 387.325L319.912 387.026C335.687 374.713 350.215 361.424 363.163 345.907C367.365 340.88 371.411 335.663 375.14 330.234C380.172 323.043 384.495 315.335 388.043 307.228C394.088 293.121 397.213 277.369 395.173 262.053C395.241 262.091 395.315 262.12 395.39 262.14C397.162 262.73 399.037 261.794 400.681 260.882C401.352 260.532 401.993 260.121 402.595 259.654H403.24C413.838 275.193 414.423 296.406 408.809 314.579C403.898 330.471 394.817 344.484 384.933 357.654Z" fill="#9DFF50"/>
<path d="M229.296 344.948C231.192 358.131 228.41 371.586 221.476 382.761L221.349 382.675C220.995 383.06 220.643 383.438 220.29 383.824C212.778 377.199 200.695 377.215 193.197 383.848C190.863 385.909 188.979 388.498 186.563 390.457C184.146 392.416 180.934 393.738 178.045 392.691C176.964 392.234 175.985 391.545 175.171 390.67C174.357 389.795 173.726 388.753 173.317 387.608C172.513 385.318 172.015 382.922 171.839 380.488L170.202 380.25C172.348 379.776 174.365 378.807 176.109 377.414C177.852 376.023 179.28 374.241 180.287 372.2C181.293 370.159 181.855 367.908 181.931 365.611C182.006 363.314 181.594 361.029 180.724 358.919H180.153C175.486 352.09 162.69 359.935 158.202 368.588L157.136 367.794C154.764 365.034 153.001 361.76 151.971 358.205C150.942 354.651 150.671 350.903 151.177 347.226C151.495 344.439 152.516 341.791 154.134 339.555C154.952 338.445 156 337.547 157.199 336.926C158.398 336.305 159.717 335.98 161.054 335.975C166.495 336.187 169.999 342.529 175.298 343.866C175.84 344.057 176.418 344.11 176.983 344.02C177.548 343.93 178.085 343.699 178.548 343.347C179.674 342.285 179.478 340.429 179.298 338.847C178.841 334.878 179.044 330.855 179.898 326.958C180.221 325.479 180.746 323.882 182.023 323.165C184.394 321.828 186.968 324.487 188.484 326.822C193.077 333.942 197.673 341.063 202.27 348.184C203.085 349.657 204.184 350.935 205.497 351.937C206.872 352.831 208.8 353.039 210.038 351.945C211.772 350.426 211.284 347.546 212.035 345.312C213.1 342.133 216.755 340.591 219.952 340.984C223.149 341.378 225.986 343.227 228.703 345.029L229.296 344.948Z" fill="#9DFF50"/>
<path d="M150.742 321.524C147.139 324.294 150.247 331.344 146.929 334.475C144.558 336.718 140.109 335.577 138.327 338.354C137.021 340.392 138.094 343.162 137.606 345.561C136.976 348.606 133.816 350.479 130.844 350.55C127.962 350.631 125.231 349.401 122.589 348.166C122.455 342.539 123.161 336.923 124.681 331.524C128.373 318.582 137.687 307.669 149.249 301.706C155.259 298.644 161.768 296.802 168.431 296.276L168.476 296.938C169.625 301.91 170.78 307.094 169.707 312.084C168.634 317.073 164.592 321.761 159.71 321.59C156.641 321.485 153.217 319.612 150.742 321.524Z" fill="#9DFF50"/>
<path d="M343.015 215.903C342.959 216.472 343.073 217.046 343.341 217.545C343.608 218.043 344.016 218.443 344.509 218.689C345.965 219.334 347.713 218.587 348.771 217.351C349.746 216.036 350.454 214.526 350.851 212.914" stroke="#171717" stroke-width="2.905" stroke-linecap="round" stroke-linejoin="round"/>
<path d="M343.015 215.903C343.253 215.497 343.469 215.077 343.661 214.645C343.296 214.959 343.063 215.411 343.015 215.903Z" stroke="#171717" stroke-width="2.905" stroke-linecap="round" stroke-linejoin="round"/>
<path d="M369.03 241.876C368.985 241.805 368.933 241.727 368.888 241.655C362.748 232.182 356.999 222.447 351.641 212.449C347.513 204.755 343.623 196.924 339.971 188.956C338.846 186.485 337.712 183.779 338.253 181.103C338.973 177.555 342.32 175.391 345.359 173.644L371.161 158.821C371.575 158.585 371.987 158.349 372.401 158.105C378.615 154.462 385.034 150.017 386.863 142.903C387.411 140.791 387.284 138.097 385.497 136.94C384.154 136.074 382.397 136.452 380.95 137.113C379.052 137.996 377.355 139.296 375.977 140.925C374.598 142.554 373.568 144.473 372.956 146.555C372.439 144.523 372.919 142.369 372.739 140.276C372.56 138.183 371.275 135.846 369.272 135.862C367.238 135.869 366 138.253 365.677 140.363C365.354 142.472 365.444 144.8 364.204 146.491C363.529 143.596 362.719 140.472 360.46 138.671C358.2 136.87 354.073 137.601 353.585 140.528C353.06 143.696 356.887 145.988 357.135 149.198C357.36 152.157 354.545 154.289 352.001 155.603C347.266 158.05 342.245 159.922 337.78 162.865C333.315 165.808 329.314 170.072 328.092 175.454C326.681 181.646 329.136 188.035 331.792 193.763C334.449 199.49 337.428 205.447 337.12 211.804C336.971 213.068 336.964 214.346 337.098 215.612C337.175 216.244 337.421 216.84 337.805 217.332C338.191 217.825 338.7 218.194 339.275 218.398C340.85 218.791 342.119 217.446 343.02 215.903" stroke="#171717" stroke-width="2.905" stroke-linecap="round" stroke-linejoin="round"/>
<path d="M369.188 199.042C370.914 199.205 372.257 197.225 372.205 195.415C372.152 193.606 371.154 191.993 370.186 190.49C366.763 185.179 363.341 179.87 359.919 174.565C363.177 171.503 367.058 169.262 371.267 168.01" stroke="#171717" stroke-width="2.905" stroke-linecap="round" stroke-linejoin="round"/>
<path d="M372.58 179.962C372.137 178.466 371.203 177.181 369.945 176.335" stroke="#171717" stroke-width="2.905" stroke-linecap="round" stroke-linejoin="round"/>
<path d="M356.212 188.256C355.424 187.052 354.633 185.846 353.84 184.637" stroke="#171717" stroke-width="2.905" stroke-linecap="round" stroke-linejoin="round"/>
<path d="M375.379 203.417C373.453 205.443 370.864 206.625 368.137 206.722C367.157 206.77 366.176 206.667 365.225 206.415C364.017 206.09 362.794 205.541 361.57 205.793C359.619 206.195 358.53 208.515 358.561 210.593C358.62 214.708 362.118 218.272 366.013 218.76C367.889 218.966 369.78 218.608 371.469 217.729C373.316 216.79 374.898 215.364 376.062 213.59" stroke="#171717" stroke-width="2.905" stroke-linecap="round" stroke-linejoin="round"/>
<path d="M371.439 217.658C370.536 217.237 369.726 216.622 369.064 215.854C368.4 215.086 367.898 214.181 367.589 213.197C367.279 212.213 367.17 211.172 367.267 210.14C367.364 209.109 367.665 208.111 368.152 207.209" stroke="#171717" stroke-width="2.905" stroke-linecap="round" stroke-linejoin="round"/>
<path d="M393.969 229.153C391.62 226.085 389.233 222.945 387.92 219.263C386.607 215.581 386.531 211.175 388.648 207.925C389.923 205.982 391.927 204.479 392.513 202.205C393.098 199.931 392.085 197.563 391.094 195.447C385.308 183.094 379.521 170.744 373.734 158.397" stroke="#171717" stroke-width="2.905" stroke-linecap="round" stroke-linejoin="round"/>
<path d="M364.55 254.756C361.637 254.071 360.737 249.784 362.193 247.054C363.588 244.433 366.291 242.954 368.888 241.655L369.226 241.493C377.482 237.408 385.744 233.323 394.01 229.24C394.753 228.87 395.489 228.508 396.232 228.139C398.648 226.943 401.23 225.715 403.887 226.061C406.543 226.407 409.11 228.996 408.487 231.727C408.547 231.593 408.6 231.459 408.66 231.333C408.825 230.963 408.99 230.593 409.148 230.224" stroke="#171717" stroke-width="2.905" stroke-linecap="round" stroke-linejoin="round"/>
<path d="M408.821 231.411C431.637 225.408 448.545 202.906 452.59 178.609C456.636 154.312 449.265 129.009 436.267 108.457C434.226 105.224 432.019 102.039 430.826 98.3629C429.632 94.6872 429.61 90.3687 431.756 87.2138C432.267 86.4793 432.864 85.8155 433.534 85.2386C435.067 84.0052 436.728 82.9595 438.488 82.1227C443.936 79.2827 449.379 76.4425 454.818 73.602C457.618 72.1395 460.417 70.6786 463.216 69.2194C465.475 68.0388 467.975 66.8192 470.436 67.4254C473.708 68.2281 475.502 71.8234 476.838 75.0572C489.625 106.05 498.722 139.407 497.416 173.141C496.2 204.495 485.108 236.272 463.614 257.872C461.978 259.508 460.281 261.098 458.526 262.616" stroke="#171717" stroke-width="2.905" stroke-linecap="round" stroke-linejoin="round"/>
<path d="M463.795 258.069C467.405 267.88 472.103 278.869 476.853 288.619C477.641 290.244 478.437 291.844 479.225 293.395" stroke="#171717" stroke-width="2.905" stroke-linecap="round" stroke-linejoin="round"/>
<path d="M429.062 33.129C433.738 29.879 447.937 54.388 454.587 73.104" stroke="#171717" stroke-width="2.905" stroke-linecap="round" stroke-linejoin="round"/>
<path d="M418.458 41.0832C424.244 37.8332 434.593 55.5522 439.674 61.5087C435.201 52.342 425.863 35.7501 429.062 33.1288" stroke="#171717" stroke-width="2.905" stroke-linecap="round" stroke-linejoin="round"/>
<path d="M409.2 49.1563C411.913 47.125 426.419 59.6936 432.942 67.0946C426.94 59.2039 414.625 43.4688 418.458 41.0833" stroke="#171717" stroke-width="2.905" stroke-linecap="round" stroke-linejoin="round"/>
<path d="M433.655 84.2945C433.572 84.3099 433.482 84.3262 433.4 84.3335C425.67 85.679 411.801 81.4621 412.491 76.5839C412.3 74.3438 424.37 74.8344 430.143 76.5449C422.161 70.0222 404.611 55.151 408.634 49.5415C408.693 49.4602 408.754 49.3839 408.821 49.3051" stroke="#171717" stroke-width="2.905" stroke-linecap="round" stroke-linejoin="round"/>
<path d="M233.184 194.384C236.493 188.098 240.726 181.394 242.406 174.431C242.819 172.692 242.767 170.198 241.089 169.86C239.911 169.616 238.927 170.741 238.207 171.74L225.913 182.406C223.834 168.771 222.931 143.722 216.342 145.485C210.8 146.25 217.048 171.74 217.048 183.534C215.141 176.799 211.515 169.6 208.475 163.346C205.436 157.091 200.552 146.083 197.167 148.089C192.2 151.032 203.832 174.714 210.293 186.799C204.316 177.228 197.051 168.613 188.724 161.22C187.456 160.096 185.729 158.945 184.266 159.758C183.11 160.396 182.758 162.039 183.125 163.346C183.589 164.626 184.317 165.785 185.256 166.737C194.987 178.241 203.317 190.966 210.056 204.622" stroke="#171717" stroke-width="2.905" stroke-linecap="round" stroke-linejoin="round"/>
<path d="M364.992 255.102C364.932 255.141 364.865 255.183 364.805 255.213C347.266 266.1 328.158 276.976 307.842 275.378C291.877 274.12 277.012 264.921 266.633 252.141C256.253 239.36 250.085 223.249 247.052 206.766C246.031 201.187 244.23 194.278 238.888 193.311C236.928 193.08 234.946 193.451 233.184 194.381V194.389C232.553 194.673 231.93 194.987 231.324 195.294C224.427 198.795 217.525 202.301 210.618 205.814C209.102 206.576 207.595 207.348 206.077 208.119C211.263 227.805 216.471 247.561 224.149 266.334C231.444 284.156 241.343 301.465 256.27 312.913C272.976 325.715 294.763 329.964 315.304 327.351C333.699 325.015 351.192 317.532 367.208 307.682C369.077 306.533 370.924 305.352 372.746 304.141" stroke="#171717" stroke-width="2.905" stroke-linecap="round" stroke-linejoin="round"/>
<path d="M384.918 357.615C384.926 357.631 384.926 357.639 384.933 357.654C388.111 365.536 392.311 374.579 395.801 382.298" stroke="#171717" stroke-width="2.905" stroke-linecap="round" stroke-linejoin="round"/>
<path d="M367.379 307.991C369.713 315.647 372.205 322.461 374.839 330.01" stroke="#171717" stroke-width="2.905" stroke-linecap="round" stroke-linejoin="round"/>
<path d="M401.714 249.925C401.755 249.772 401.787 249.617 401.811 249.461C402.224 246.849 401.046 243.017 400.739 240.397C400.566 238.957 400.243 237.289 398.997 236.652C397.751 236.015 396.31 236.762 395.122 237.494C392.281 239.247 389.434 241 386.582 242.75C385.572 243.25 384.713 244.034 384.102 245.015C383.861 245.578 383.74 246.19 383.747 246.807C383.755 247.425 383.892 248.034 384.147 248.59C384.663 249.701 385.333 250.724 386.136 251.627C387.412 253.208 388.8 254.869 390.699 255.451C391.013 255.544 391.335 255.608 391.659 255.64C393.505 255.704 395.327 255.179 396.883 254.137C398.97 252.9 401.128 252.129 401.714 249.925Z" stroke="#171717" stroke-width="2.905" stroke-linecap="round" stroke-linejoin="round"/>
<path d="M391.657 255.756C392.138 258.257 392.948 261.161 395.17 262.057C395.239 262.095 395.312 262.124 395.387 262.144C397.159 262.734 399.034 261.798 400.678 260.886C401.349 260.536 401.99 260.125 402.592 259.658C403.182 259.209 403.644 258.599 403.928 257.896C404.116 257.213 404.171 256.498 404.091 255.793C404.012 255.088 403.798 254.406 403.463 253.788C402.785 252.559 402.22 251.266 401.774 249.925" stroke="#171717" stroke-width="2.905" stroke-linecap="round" stroke-linejoin="round"/>
<path d="M395.118 261.641C395.14 261.783 395.155 261.916 395.17 262.057C397.211 277.369 394.089 293.121 388.04 307.232C384.492 315.339 380.17 323.047 375.138 330.238C371.409 335.667 367.363 340.882 363.161 345.911C350.218 361.43 335.685 374.717 319.91 387.03" stroke="#171717" stroke-width="2.905" stroke-linecap="round" stroke-linejoin="round"/>
<path d="M403.237 259.658C413.835 275.197 414.42 296.41 408.806 314.583C403.898 330.469 394.817 344.483 384.936 357.653C383.51 359.548 382.072 361.429 380.621 363.295C367.93 379.628 354.508 395.293 340.357 410.291" stroke="#171717" stroke-width="2.905" stroke-linecap="round" stroke-linejoin="round"/>
<path d="M319.37 387.325C318.251 395.878 317.131 404.428 316.008 412.975C324.147 412.596 332.257 411.702 340.294 410.299" stroke="#171717" stroke-width="2.905" stroke-linecap="round" stroke-linejoin="round"/>
<path d="M166.735 400.929C166.767 400.945 166.799 400.958 166.833 400.968C183.816 408.215 204.755 402.723 217.153 388.552C218.736 386.743 220.181 384.807 221.476 382.761C228.41 371.586 231.192 358.13 229.296 344.948C228.789 341.397 227.942 337.91 226.767 334.538C220.412 316.457 204.792 302.547 186.961 297.888C180.911 296.308 174.656 295.764 168.439 296.276C161.775 296.801 155.267 298.643 149.256 301.705C137.691 307.669 128.377 318.582 124.688 331.524C123.169 336.923 122.463 342.538 122.596 348.165C122.999 360.784 126.875 373.012 133.756 383.375V383.382" stroke="#171717" stroke-width="2.905" stroke-linecap="round" stroke-linejoin="round"/>
<path d="M404.101 412.613C403.936 412.33 403.77 412.044 403.613 411.756C398.755 402.786 396.265 392.62 396.4 382.306C396.43 373.954 397.87 365.674 400.656 357.849C406.953 340.107 419.276 325.26 433.497 313.584C445.775 303.489 460.073 295.346 475.593 293.678C476.793 293.544 478.009 293.457 479.225 293.426C489.657 293.08 500.366 296.046 508.697 302.309V302.317C511.933 304.725 514.777 307.665 517.117 311.025C523.647 320.435 525.741 332.475 525.943 344.094C526.288 363.749 521.725 383.261 514.581 401.437C507.436 419.612 497.739 436.56 487.495 453.02C483.555 459.345 479.06 466.002 472.246 468.449C470.286 469.133 468.233 469.484 466.166 469.488C461.693 469.558 457.099 468.315 452.725 467.072C446.215 465.215 438.969 462.721 435.344 457.04C434.894 456.333 434.505 455.586 434.181 454.806C431.934 449.345 433.406 443.067 435.052 437.378C436.823 431.24 438.774 425.164 440.905 419.148C447.864 399.45 456.676 380.529 467.21 362.663" stroke="#171717" stroke-width="2.905" stroke-linecap="round" stroke-linejoin="round"/>
<path d="M404.101 412.613C407.718 418.121 408.138 420.804 412.311 422.944C416.484 425.084 421.354 425.423 425.951 424.643C430.547 423.864 436.699 421.213 440.908 419.144" stroke="#171717" stroke-width="2.905" stroke-linecap="round" stroke-linejoin="round"/>
<path d="M477.626 288.211C480.475 283.966 484.166 280.415 488.445 277.803C492.723 275.192 497.49 273.58 502.418 273.079C507.346 272.577 512.319 273.197 516.997 274.898C521.676 276.598 525.949 279.338 529.523 282.93" stroke="#171717" stroke-width="2.905" stroke-linecap="round" stroke-linejoin="round"/>
<path d="M662.067 244.41C657.099 235.047 647.419 231.23 637.639 230.877C627.099 230.491 616.404 233.276 606.426 236.589C595.997 240.121 585.917 244.696 576.323 250.25C561.891 258.496 548.465 268.465 535.534 279.086C533.703 280.59 531.879 282.108 530.063 283.642C527.189 286.058 524.335 288.497 521.5 290.96C517.274 294.626 513.072 298.316 508.892 302.03" stroke="#171717" stroke-width="2.905" stroke-linecap="round" stroke-linejoin="round"/>
<path d="M355.837 590.951C365.548 595.443 376.693 594.192 386.704 591.572C387.169 591.454 387.627 591.329 388.085 591.195C398.238 588.417 408.116 584.255 417.812 580.14C438.461 571.404 458.46 561.065 477.642 549.21C481.957 546.544 486.23 543.795 490.461 540.965C504.928 531.308 518.822 520.741 532.068 509.32C540.541 502.002 548.724 494.333 556.617 486.313C564.691 478.115 572.421 469.554 579.807 460.631C587.987 450.734 595.695 440.434 602.929 429.734C608.536 421.446 613.834 412.942 618.825 404.221C623.636 395.81 628.136 387.22 632.326 378.454C638.107 366.381 643.273 353.995 647.801 341.347C655.494 319.836 672.17 267.718 662.068 244.416" stroke="#171717" stroke-width="2.905" stroke-linecap="round" stroke-linejoin="round"/>
<path d="M403.027 411.968C398.682 421.842 393.991 430.474 389.263 439.561C388.738 440.568 388.212 441.592 387.688 442.614C372.88 471.553 356.857 498.587 343.971 528.266C342.485 531.672 341.046 535.118 339.655 538.605C336.654 546.472 337.408 554.34 337.472 562.625" stroke="#171717" stroke-width="2.905" stroke-linecap="round" stroke-linejoin="round"/>
<path d="M389.422 439.644C389.369 439.62 389.316 439.588 389.267 439.562C380.411 435.062 370.002 434.944 360.328 436.927C341.558 440.775 324.559 452.207 312.131 467.447C303.562 478.14 296.894 490.359 292.446 503.522C290.455 509.279 288.828 515.166 287.575 521.146C285.017 533.342 283.987 546.458 288.52 558.001C289.406 560.251 291.05 562.761 293.361 562.509C295.2 562.304 296.378 560.432 297.362 558.795C302.381 550.541 309.01 543.496 316.814 538.123C324.618 532.749 333.42 529.171 342.639 527.622" stroke="#171717" stroke-width="2.905" stroke-linecap="round" stroke-linejoin="round"/>
<path d="M490.43 540.32C490.437 540.532 490.452 540.752 490.46 540.965C491.39 561.327 489.402 582.06 482.37 601.045C475.263 620.243 462.714 637.592 445.723 647.915C431.861 656.334 415.793 659.765 399.92 662.134C399.635 662.173 399.358 662.22 399.073 662.26C386.757 664.061 373.946 665.304 362.105 661.331C358.938 660.275 355.531 658.444 354.645 655.092C353.932 652.411 355.125 649.505 356.934 647.467C358.743 645.43 361.099 644.045 363.313 642.511C378.84 631.78 388.199 611.944 386.931 592.495C387.313 592.061 387.696 591.629 388.087 591.195C388.132 591.147 388.177 591.092 388.222 591.045" stroke="#171717" stroke-width="2.905" stroke-linecap="round" stroke-linejoin="round"/>
<path d="M355.493 590.534C375.531 572.264 395.179 553.287 410.052 530.303C413.062 525.638 415.922 520.705 417.032 515.197C418.04 510.248 417.595 501.326 412.567 498.622C407.418 495.836 398.007 499.597 393.287 501.911C384.956 505.973 378.232 512.879 371.905 519.857C359.631 533.386 348.149 547.682 337.525 562.668C335.665 565.295 333.83 567.942 332.022 570.607C324.592 581.575 317.515 593.124 314.19 606.113C313.215 609.945 313.125 615.083 316.57 616.711C318.611 617.68 320.983 616.869 323.032 615.917C332.12 611.668 339.805 604.752 347.34 597.93C350.057 595.476 352.775 593.01 355.493 590.534Z" stroke="#171717" stroke-width="2.905" stroke-linecap="round" stroke-linejoin="round"/>
<path d="M535.549 279.108C531.759 298.093 532.495 317.716 540.127 335.381C547.759 353.045 561.351 367.938 578.155 376.05C594.958 384.162 614.861 385.256 632.153 378.355" stroke="#171717" stroke-width="2.905" stroke-linecap="round" stroke-linejoin="round"/>
<path d="M603.356 429.663L602.928 429.734C583.723 433.007 563.07 423.802 552.015 407.019C551.955 406.937 551.91 406.869 551.86 406.79" stroke="#171717" stroke-width="2.905" stroke-linecap="round" stroke-linejoin="round"/>
<path d="M556.969 486.368C556.849 486.353 556.736 486.337 556.616 486.313C547.969 485.034 539.653 481.96 532.154 477.269C524.655 472.578 518.125 466.365 512.945 458.995" stroke="#171717" stroke-width="2.905" stroke-linecap="round" stroke-linejoin="round"/>
<path d="M512.99 458.838C529.119 444.728 542.227 427.21 551.46 407.428" stroke="#171717" stroke-width="2.905" stroke-linecap="round" stroke-linejoin="round"/>
<path d="M552.18 427.39C552.532 426.212 552.796 425.007 552.968 423.785C553.163 422.498 553.253 421.195 553.238 419.891" stroke="#171717" stroke-width="2.905" stroke-linecap="round" stroke-linejoin="round"/>
<path d="M549.268 423.439C550.499 423.558 551.737 423.676 552.968 423.785C553.681 423.857 554.387 423.928 555.099 423.99" stroke="#171717" stroke-width="2.905" stroke-linecap="round" stroke-linejoin="round"/>
<path d="M527.017 464.597C526.939 463.755 526.874 462.906 526.807 462.056C526.701 460.774 526.589 459.491 526.483 458.208" stroke="#171717" stroke-width="2.905" stroke-linecap="round" stroke-linejoin="round"/>
<path d="M523.579 462.442C524.652 462.316 525.733 462.19 526.806 462.056C528.112 461.906 529.42 461.751 530.731 461.592" stroke="#171717" stroke-width="2.905" stroke-linecap="round" stroke-linejoin="round"/>
<path d="M435.201 457.139C430.18 462.378 424.875 468.217 424.101 475.597C423.591 480.42 425.129 485.196 426.668 489.767C430.375 500.822 434.22 511.824 438.203 522.774C439.584 526.582 441.175 530.634 444.455 532.821C448.379 535.433 453.468 534.576 458.031 533.634C461.813 532.847 466.024 531.765 468.072 528.339C469.641 525.703 469.491 522.375 469.296 519.283C468.263 503.13 467.227 486.974 466.189 470.815" stroke="#171717" stroke-width="2.905" stroke-linecap="round" stroke-linejoin="round"/>
<path d="M292.135 503.402C277.793 499.177 261.995 507.187 253.079 519.698C244.164 532.209 241.071 548.298 240.486 563.898C238.626 553.308 226.977 546.942 216.793 548.413C206.61 549.885 198.053 557.249 191.471 565.519C195.922 556.596 191.411 544.574 182.983 539.743C174.555 534.912 163.608 536.619 155.74 542.41C159.348 538.052 161.695 532.706 162.506 526.998C163.317 521.29 162.558 515.459 160.319 510.187C158.08 504.916 154.453 500.424 149.864 497.237C145.275 494.051 139.915 492.303 134.411 492.198C138.259 488.964 141.281 484.781 143.207 480.022C145.134 475.264 145.905 470.078 145.451 464.93C144.998 459.783 143.334 454.833 140.608 450.526C137.883 446.218 134.18 442.686 129.833 440.245C136.808 444.455 146.501 439.301 149.256 431.377C152.01 423.454 149.11 414.344 143.95 407.875C150.892 412.006 160.603 409.921 165.444 403.272C165.976 402.551 166.441 401.78 166.833 400.966C170.088 394.405 169.024 385.6 164.003 380.321C166.052 380.758 168.165 380.733 170.203 380.25C172.348 379.775 174.366 378.807 176.11 377.414C177.854 376.023 179.281 374.241 180.288 372.2C181.294 370.159 181.856 367.908 181.932 365.611C182.007 363.314 181.595 361.029 180.725 358.919" stroke="#171717" stroke-width="2.905" stroke-linecap="round" stroke-linejoin="round"/>
<path d="M100.797 596.789C87.611 610.219 82.2596 631.589 87.5885 650.063C93.067 669.033 109.533 684.006 128.22 686.996C146.908 689.986 166.893 680.851 177.52 664.454C169.054 682.167 182.39 705.934 201.002 709.334C219.614 712.733 238.676 697.964 243.787 678.9C243.653 699.797 262.07 718.815 282.003 718.358C301.936 717.901 319.534 698.059 318.529 677.177C324.751 696.91 345.809 710.128 365.339 706.579C384.869 703.03 400.433 683.125 399.952 662.361" stroke="#171717" stroke-width="2.905" stroke-linecap="round" stroke-linejoin="round"/>
<path d="M100.797 596.789C101.172 596.451 101.54 596.088 101.882 595.71C101.518 596.065 101.149 596.419 100.797 596.789Z" stroke="#171717" stroke-width="2.905" stroke-linecap="round" stroke-linejoin="round"/>
<path d="M180.153 358.921C175.486 352.092 162.69 359.937 158.202 368.59C157.613 369.704 157.166 370.894 156.873 372.13C148.003 368.731 137.6 374.624 133.751 383.374C132.561 385.993 132.047 388.893 132.258 391.784C128.437 390.639 124.367 390.808 120.644 392.269C116.923 393.729 113.745 396.402 111.581 399.896C109.416 403.39 108.378 407.52 108.619 411.678C108.859 415.837 110.366 419.805 112.917 422.999C105.338 419.569 95.5575 422.928 91.3725 430.393C87.1875 437.857 89.1591 448.442 95.7125 453.721C84.6501 453.603 74.1056 462.486 71.824 473.824C69.5424 485.162 75.7641 497.759 85.9289 502.338C58.7909 515.375 46.2653 554.102 60.2548 581.743C64.2399 589.624 70.274 596.724 78.1835 600.024C85.6235 603.132 94.8298 602.266 100.803 596.79" stroke="#171717" stroke-width="2.905" stroke-linecap="round" stroke-linejoin="round"/>
<path d="M207.877 520.17C206.615 520.843 205.544 521.853 204.77 523.096C203.997 524.34 203.548 525.775 203.47 527.258C203.391 528.74 203.684 530.219 204.321 531.545C204.958 532.871 205.916 533.999 207.1 534.815C208.283 535.631 209.649 536.108 211.063 536.196C212.477 536.285 213.888 535.984 215.156 535.321C216.424 534.659 217.503 533.66 218.287 532.423C219.071 531.187 219.532 529.756 219.622 528.274C219.697 526.785 219.399 525.302 218.757 523.972C218.116 522.642 217.154 521.51 215.966 520.691C214.778 519.872 213.407 519.392 211.988 519.3C210.569 519.209 209.151 519.509 207.877 520.17Z" stroke="#171717" stroke-width="2.905" stroke-linecap="round" stroke-linejoin="round"/>
<path d="M312.736 725.817C311.279 728.323 310.55 731.222 310.638 734.156C310.726 737.089 311.627 739.934 313.231 742.34C316.556 747.037 322.957 749.138 328.151 746.998C333.344 744.858 336.699 738.532 335.446 732.835C334.433 728.232 329.866 720.868 325.441 719.074C320.751 717.17 315.047 721.899 312.736 725.817Z" stroke="#171717" stroke-width="2.905" stroke-linecap="round" stroke-linejoin="round"/>
<path d="M228.013 725.943C227.572 727.029 227.361 728.203 227.395 729.384C227.428 730.564 227.706 731.723 228.208 732.78C228.956 734.121 230.091 735.178 231.449 735.798C232.808 736.419 234.319 736.572 235.765 736.235C242.069 734.7 242.74 726.754 239.623 721.859C235.975 716.124 229.896 721.012 228.013 725.943Z" stroke="#171717" stroke-width="2.905" stroke-linecap="round" stroke-linejoin="round"/>
<path d="M228.703 345.035C225.986 343.233 223.149 341.378 219.952 340.99C216.754 340.602 213.1 342.139 212.034 345.317C211.284 347.552 211.771 350.436 210.038 351.951C208.798 353.044 206.871 352.84 205.497 351.943C204.183 350.942 203.084 349.663 202.27 348.19C197.672 341.069 193.076 333.948 188.483 326.827C186.968 324.491 184.394 321.831 182.022 323.171C180.746 323.888 180.22 325.484 179.898 326.964C179.043 330.861 178.84 334.883 179.297 338.852C179.478 340.434 179.673 342.291 178.547 343.353C178.084 343.705 177.548 343.935 176.982 344.026C176.417 344.116 175.839 344.064 175.298 343.872C169.999 342.535 166.494 336.193 161.053 335.981C159.716 335.986 158.398 336.312 157.198 336.932C155.999 337.552 154.952 338.452 154.134 339.561C152.516 341.797 151.494 344.445 151.176 347.232C150.67 350.908 150.942 354.657 151.971 358.211C153.001 361.766 154.764 365.039 157.135 367.799" stroke="#171717" stroke-width="2.905" stroke-linecap="round" stroke-linejoin="round"/>
<path d="M171.838 380.488C172.014 382.921 172.511 385.318 173.316 387.608C173.725 388.753 174.356 389.796 175.17 390.671C175.984 391.546 176.963 392.234 178.044 392.691C180.933 393.737 184.153 392.424 186.562 390.457C188.971 388.49 190.862 385.907 193.197 383.848C200.694 377.214 212.777 377.199 220.289 383.824C220.642 383.438 220.994 383.06 221.348 382.675" stroke="#171717" stroke-width="2.905" stroke-linecap="round" stroke-linejoin="round"/>
<path d="M122.336 348.047C122.419 348.087 122.508 348.129 122.591 348.166C125.233 349.401 127.964 350.629 130.847 350.55C133.819 350.479 136.979 348.606 137.609 345.561C138.096 343.162 137.023 340.392 138.329 338.354C140.108 335.577 144.558 336.718 146.932 334.475C150.25 331.344 147.142 324.294 150.745 321.524C153.221 319.612 156.643 321.485 159.72 321.588C164.603 321.761 168.636 317.071 169.718 312.081C170.799 307.092 169.635 301.908 168.487 296.936" stroke="#171717" stroke-width="2.905" stroke-linecap="round" stroke-linejoin="round"/>
<path d="M428.076 466.098L439.658 511.89C440.728 516.124 441.915 520.573 444.887 523.65C447.798 526.662 452.054 527.89 456.144 527.875C460.233 527.859 464.236 526.737 468.184 525.616" stroke="#171717" stroke-width="2.905" stroke-linecap="round" stroke-linejoin="round"/>
<path d="M466.35 482.698C458.879 482.983 451.446 481.447 444.636 478.212" stroke="#171717" stroke-width="2.905" stroke-linecap="round" stroke-linejoin="round"/>
<path d="M467.418 494.331C460.269 494.48 453.185 492.876 446.732 489.647" stroke="#171717" stroke-width="2.905" stroke-linecap="round" stroke-linejoin="round"/>
<path d="M467.955 504.351C461.058 505.655 453.943 504.553 447.701 501.213" stroke="#171717" stroke-width="2.905" stroke-linecap="round" stroke-linejoin="round"/>
<path d="M211.665 227.825L248.114 215.002" stroke="#171717" stroke-width="2.905" stroke-linecap="round" stroke-linejoin="round"/>
<path d="M438.128 111.764L480.778 86.7978" stroke="#171717" stroke-width="2.905" stroke-linecap="round" stroke-linejoin="round"/>
<path d="M276.979 340.356C269.321 340.518 261.74 338.723 254.891 335.128C248.043 331.532 242.131 326.244 237.667 319.719" stroke="#171717" stroke-width="2.905" stroke-linecap="round" stroke-linejoin="round"/>
<path d="M308.962 367.105L312.427 357.671" stroke="#171717" stroke-width="2.905" stroke-linecap="round" stroke-linejoin="round"/>
<path d="M306.118 361.514L315.916 363.748" stroke="#171717" stroke-width="2.905" stroke-linecap="round" stroke-linejoin="round"/>
<path d="M294.252 197.082L295.802 184.095" stroke="#171717" stroke-width="2.905" stroke-linecap="round" stroke-linejoin="round"/>
<path d="M288.649 189.5L302.677 191.677" stroke="#171717" stroke-width="2.905" stroke-linecap="round" stroke-linejoin="round"/>
<path d="M309.613 154.888L310.892 138.214" stroke="#171717" stroke-width="2.905" stroke-linecap="round" stroke-linejoin="round"/>
<path d="M303.457 145.251C308.739 146.067 314.113 145.98 319.37 144.995" stroke="#171717" stroke-width="2.905" stroke-linecap="round" stroke-linejoin="round"/>
<path d="M183.365 187.905C180.943 187.303 178.776 185.881 177.201 183.86C175.625 181.838 174.729 179.328 174.65 176.719" stroke="#171717" stroke-width="2.905" stroke-linecap="round" stroke-linejoin="round"/>
<path d="M250.024 182.929C251.713 180.607 252.719 177.819 252.92 174.906C253.121 171.993 252.507 169.082 251.154 166.529" stroke="#171717" stroke-width="2.905" stroke-linecap="round" stroke-linejoin="round"/>
<path d="M514.449 169.731C515.836 164.285 515.97 158.572 514.839 153.06C513.707 147.55 511.344 142.4 507.943 138.033" stroke="#171717" stroke-width="2.905" stroke-linecap="round" stroke-linejoin="round"/>
<path d="M683.86 363.253C675.64 374.129 670.616 387.226 665.958 400.214C663.566 406.877 661.216 413.684 660.81 420.79C660.405 427.896 662.205 435.46 667.073 440.421C671.941 445.383 680.248 446.869 685.661 442.574C691.073 438.28 691.296 428.052 685.39 424.537C680.02 421.343 672.819 424.929 669.698 430.514C666.577 436.098 666.493 442.934 666.712 449.402C666.968 456.931 667.514 464.444 668.352 471.941C669.118 478.785 670.114 485.839 668.321 492.469C666.527 499.099 661.03 505.212 654.46 504.982C647.89 504.752 642.66 495.566 647.02 490.41" stroke="#171717" stroke-width="2.905" stroke-linecap="round" stroke-linejoin="round"/>
<path d="M615.22 483.763L612.043 468.767" stroke="#171717" stroke-width="2.905" stroke-linecap="round" stroke-linejoin="round"/>
<path d="M604.936 480.559L620.024 474.698" stroke="#171717" stroke-width="2.905" stroke-linecap="round" stroke-linejoin="round"/>
<path d="M283.85 422.086C281.572 420.285 278.936 419.046 276.139 418.463C273.34 417.88 270.452 417.967 267.691 418.718C264.93 419.469 262.366 420.864 260.191 422.799C258.016 424.734 256.285 427.16 255.13 429.894C251.991 437.318 253.446 445.856 254.339 453.923C255.231 461.991 255.199 471.075 249.974 477.07C246.007 481.62 239.885 483.326 234.041 484.026C230.426 484.456 226.584 484.542 223.354 482.787C220.124 481.031 217.819 476.89 219.113 473.324C220.406 469.758 226.057 468.759 227.667 472.18C228.191 473.294 227.918 475.039 226.747 475.226C225.576 475.412 225.692 472.754 226.701 473.404" stroke="#171717" stroke-width="2.905" stroke-linecap="round" stroke-linejoin="round"/>
<path d="M589.988 217.143L588.355 204.653" stroke="#171717" stroke-width="2.905" stroke-linecap="round" stroke-linejoin="round"/>
<path d="M581.84 212.956L596.145 211.302" stroke="#171717" stroke-width="2.905" stroke-linecap="round" stroke-linejoin="round"/>
<path d="M632.021 169.813L635.679 176.719C635.79 176.927 635.837 177.166 635.814 177.404C635.792 177.641 635.699 177.865 635.551 178.046C635.403 178.228 635.205 178.356 634.985 178.416C634.765 178.475 634.532 178.462 634.318 178.38L627.254 175.624C627.047 175.543 626.823 175.528 626.61 175.581C626.396 175.635 626.201 175.753 626.051 175.922L620.913 181.705C620.758 181.88 620.556 182 620.334 182.05C620.111 182.101 619.879 182.079 619.669 181.987C619.459 181.894 619.282 181.738 619.159 181.536C619.038 181.335 618.977 181.099 618.987 180.861L619.304 172.965C619.314 172.734 619.257 172.506 619.143 172.309C619.028 172.112 618.861 171.955 618.661 171.858L611.828 168.527C611.622 168.426 611.45 168.262 611.335 168.056C611.22 167.85 611.169 167.611 611.188 167.373C611.206 167.135 611.294 166.909 611.439 166.725C611.584 166.541 611.779 166.408 611.998 166.345L619.259 164.221C619.471 164.158 619.66 164.032 619.803 163.858C619.948 163.683 620.038 163.467 620.065 163.239L620.978 155.394C621.006 155.157 621.102 154.935 621.254 154.757C621.405 154.579 621.606 154.455 621.827 154.399C622.049 154.345 622.281 154.362 622.493 154.45C622.704 154.538 622.885 154.691 623.01 154.89L627.181 161.471C627.302 161.663 627.476 161.813 627.679 161.902C627.882 161.991 628.105 162.015 628.321 161.971L635.72 160.458C635.943 160.413 636.174 160.44 636.382 160.536C636.589 160.633 636.764 160.793 636.882 160.997C637.001 161.2 637.057 161.436 637.043 161.675C637.029 161.913 636.946 162.14 636.805 162.327L632.122 168.519C631.986 168.699 631.903 168.92 631.884 169.15C631.866 169.379 631.914 169.61 632.021 169.813Z" fill="#171717"/>
<path d="M276.8 133.375L278.469 138.269C278.519 138.417 278.525 138.577 278.486 138.728C278.447 138.879 278.364 139.015 278.25 139.115C278.135 139.215 277.993 139.277 277.844 139.291C277.696 139.305 277.546 139.271 277.417 139.193L273.115 136.612C272.989 136.537 272.845 136.502 272.701 136.512C272.557 136.523 272.418 136.578 272.304 136.671L268.38 139.846C268.262 139.941 268.118 139.996 267.969 140.004C267.82 140.012 267.672 139.971 267.545 139.888C267.418 139.804 267.319 139.683 267.261 139.539C267.202 139.395 267.187 139.236 267.218 139.082L268.229 133.995C268.258 133.846 268.245 133.692 268.191 133.551C268.137 133.411 268.045 133.291 267.925 133.205L263.832 130.275C263.708 130.186 263.614 130.06 263.561 129.913C263.508 129.767 263.499 129.607 263.536 129.455C263.572 129.303 263.652 129.166 263.764 129.062C263.877 128.959 264.017 128.895 264.166 128.878L269.093 128.315C269.236 128.298 269.371 128.237 269.481 128.139C269.592 128.043 269.672 127.913 269.713 127.768L271.108 122.782C271.15 122.631 271.235 122.498 271.351 122.4C271.468 122.302 271.611 122.243 271.76 122.232C271.909 122.221 272.058 122.258 272.186 122.34C272.315 122.42 272.416 122.54 272.478 122.683L274.511 127.421C274.57 127.559 274.668 127.676 274.79 127.757C274.913 127.837 275.055 127.877 275.2 127.873L280.155 127.722C280.304 127.717 280.452 127.761 280.576 127.847C280.701 127.933 280.799 128.056 280.855 128.203C280.91 128.348 280.922 128.507 280.889 128.661C280.855 128.814 280.779 128.952 280.668 129.057L276.997 132.551C276.89 132.653 276.815 132.785 276.78 132.932C276.745 133.079 276.752 133.233 276.8 133.375Z" fill="#171717"/>
<path d="M124.496 250.615L129.327 254.905C129.473 255.034 129.578 255.207 129.627 255.401C129.676 255.595 129.668 255.799 129.602 255.988C129.537 256.176 129.418 256.339 129.261 256.454C129.106 256.57 128.919 256.632 128.728 256.633L122.397 256.666C122.212 256.667 122.032 256.726 121.878 256.834C121.725 256.943 121.606 257.096 121.536 257.276L119.138 263.418C119.066 263.603 118.941 263.762 118.78 263.871C118.62 263.98 118.432 264.034 118.24 264.028C118.05 264.02 117.865 263.952 117.712 263.832C117.559 263.711 117.445 263.545 117.385 263.355L115.398 257.052C115.34 256.869 115.231 256.707 115.086 256.587C114.94 256.468 114.764 256.397 114.58 256.383L108.266 255.89C108.075 255.875 107.893 255.799 107.745 255.673C107.597 255.546 107.489 255.375 107.437 255.183C107.384 254.99 107.389 254.785 107.451 254.595C107.513 254.406 107.628 254.241 107.782 254.122L112.885 250.193C113.034 250.079 113.147 249.92 113.21 249.738C113.273 249.556 113.283 249.359 113.24 249.17L111.736 242.723C111.691 242.528 111.703 242.324 111.772 242.136C111.841 241.949 111.963 241.789 112.121 241.677C112.28 241.565 112.467 241.507 112.658 241.51C112.849 241.513 113.035 241.577 113.19 241.694L118.331 245.568C118.48 245.681 118.659 245.745 118.844 245.752C119.028 245.758 119.211 245.707 119.369 245.606L124.753 242.112C124.915 242.006 125.105 241.955 125.296 241.966C125.486 241.977 125.669 242.049 125.82 242.172C125.971 242.296 126.082 242.464 126.138 242.656C126.194 242.847 126.193 243.052 126.135 243.243L124.21 249.567C124.153 249.751 124.149 249.95 124.2 250.136C124.251 250.323 124.354 250.49 124.496 250.615Z" fill="#171717"/>
<path d="M609.526 538.464L611.195 543.357C611.245 543.505 611.251 543.665 611.212 543.817C611.173 543.968 611.091 544.104 610.976 544.204C610.861 544.305 610.72 544.366 610.571 544.381C610.422 544.394 610.272 544.36 610.142 544.282L605.84 541.701C605.715 541.625 605.57 541.591 605.426 541.602C605.282 541.612 605.144 541.667 605.029 541.76L601.106 544.935C600.987 545.031 600.844 545.086 600.695 545.093C600.545 545.101 600.397 545.06 600.271 544.977C600.145 544.894 600.045 544.772 599.987 544.628C599.928 544.484 599.913 544.325 599.943 544.171L600.951 539.084C600.98 538.935 600.967 538.781 600.913 538.64C600.859 538.5 600.766 538.38 600.647 538.293L596.554 535.364C596.431 535.275 596.336 535.149 596.283 535.003C596.23 534.856 596.221 534.696 596.257 534.544C596.294 534.392 596.374 534.255 596.486 534.152C596.599 534.049 596.739 533.984 596.887 533.967L601.815 533.404C601.958 533.387 602.093 533.326 602.203 533.228C602.314 533.132 602.395 533.002 602.435 532.857L603.83 527.87C603.872 527.72 603.957 527.586 604.074 527.488C604.19 527.39 604.333 527.331 604.482 527.321C604.631 527.31 604.78 527.347 604.909 527.428C605.036 527.508 605.139 527.628 605.2 527.771L607.234 532.51C607.292 532.648 607.39 532.765 607.513 532.846C607.635 532.926 607.778 532.967 607.922 532.962L612.876 532.811C613.026 532.806 613.173 532.85 613.299 532.936C613.424 533.021 613.521 533.145 613.577 533.291C613.633 533.436 613.644 533.596 613.611 533.749C613.578 533.902 613.5 534.04 613.389 534.146L609.719 537.639C609.613 537.742 609.538 537.874 609.504 538.021C609.469 538.168 609.477 538.322 609.526 538.464Z" fill="#171717"/>
<path d="M479.725 134.144C479.861 130.07 480.648 126.05 482.056 122.25" stroke="#171717" stroke-width="2.905" stroke-linecap="round" stroke-linejoin="round"/>
<path d="M462.065 128.862L456.8 126.912" stroke="#171717" stroke-width="2.905" stroke-linecap="round" stroke-linejoin="round"/>
<path d="M484.558 162.071L476.79 157.995" stroke="#171717" stroke-width="2.905" stroke-linecap="round" stroke-linejoin="round"/>
<path d="M460.28 193.766L465.52 187.419" stroke="#171717" stroke-width="2.905" stroke-linecap="round" stroke-linejoin="round"/>
<path d="M477.97 211.122C476.338 208.691 475.114 205.987 474.351 203.125" stroke="#171717" stroke-width="2.905" stroke-linecap="round" stroke-linejoin="round"/>
<path d="M450.377 221.894L456.732 219.672" stroke="#171717" stroke-width="2.905" stroke-linecap="round" stroke-linejoin="round"/>
<path d="M454.686 249.645C454.096 246.967 453.941 244.203 454.227 241.471" stroke="#171717" stroke-width="2.905" stroke-linecap="round" stroke-linejoin="round"/>
<path d="M422.823 241.82L429.189 241.17" stroke="#171717" stroke-width="2.905" stroke-linecap="round" stroke-linejoin="round"/>
<path d="M433.417 280.023L433.21 271.143" stroke="#171717" stroke-width="2.905" stroke-linecap="round" stroke-linejoin="round"/>
<path d="M451.79 281.134C453.532 281.568 455.346 281.568 457.087 281.134" stroke="#171717" stroke-width="2.905" stroke-linecap="round" stroke-linejoin="round"/>
<path d="M421.677 312.238L421.571 305.204" stroke="#171717" stroke-width="2.905" stroke-linecap="round" stroke-linejoin="round"/>
<path d="M391.375 356.565L395.974 355.487" stroke="#171717" stroke-width="2.905" stroke-linecap="round" stroke-linejoin="round"/>
<path d="M380.096 308.904V302.609" stroke="#171717" stroke-width="2.905" stroke-linecap="round" stroke-linejoin="round"/>
<path d="M376.218 283.407L383.633 282.281" stroke="#171717" stroke-width="2.905" stroke-linecap="round" stroke-linejoin="round"/>
<path d="M367.003 271.131L367.693 264.835" stroke="#171717" stroke-width="2.905" stroke-linecap="round" stroke-linejoin="round"/>
<path d="M351.839 287.406C349.549 287.679 347.231 287.32 345.113 286.364" stroke="#171717" stroke-width="2.905" stroke-linecap="round" stroke-linejoin="round"/>
<path d="M334.984 310.05L338.032 301.851" stroke="#171717" stroke-width="2.905" stroke-linecap="round" stroke-linejoin="round"/>
<path d="M319.345 290.082C316.864 289.865 314.457 289.079 312.297 287.779" stroke="#171717" stroke-width="2.905" stroke-linecap="round" stroke-linejoin="round"/>
<path d="M291.233 308.608L294.942 301.107" stroke="#171717" stroke-width="2.905" stroke-linecap="round" stroke-linejoin="round"/>
<path d="M282.501 289.394L276.916 283.037" stroke="#171717" stroke-width="2.905" stroke-linecap="round" stroke-linejoin="round"/>
<path d="M250.834 282.245L251.541 274.84" stroke="#171717" stroke-width="2.905" stroke-linecap="round" stroke-linejoin="round"/>
<path d="M257.213 255.88L250.145 253.676" stroke="#171717" stroke-width="2.905" stroke-linecap="round" stroke-linejoin="round"/>
<path d="M230.35 258.178C230.629 255.44 230.39 252.672 229.644 250.032" stroke="#171717" stroke-width="2.905" stroke-linecap="round" stroke-linejoin="round"/>
<path d="M245.848 229.736L238.792 224.911" stroke="#171717" stroke-width="2.905" stroke-linecap="round" stroke-linejoin="round"/>
<path fill-rule="evenodd" clip-rule="evenodd" d="M149.863 497.238C145.275 494.051 139.915 492.304 134.411 492.199V492.197C138.258 488.963 141.28 484.78 143.207 480.021C145.134 475.262 145.904 470.077 145.451 464.93C144.997 459.782 143.333 454.833 140.608 450.525C137.973 446.36 134.425 442.92 130.264 440.49C137.198 444.245 146.55 439.129 149.256 431.377C152.018 423.461 149.113 414.343 143.95 407.875C150.893 412.007 160.603 409.923 165.443 403.272C165.975 402.552 166.44 401.779 166.832 400.966C170.089 394.405 169.023 385.602 164.003 380.321C166.05 380.758 168.164 380.734 170.203 380.25C172.346 379.775 174.364 378.806 176.106 377.414C177.85 376.023 179.277 374.242 180.284 372.201C181.29 370.16 181.852 367.911 181.928 365.615C182.004 363.318 181.593 361.033 180.724 358.924H180.154C175.484 352.094 162.69 359.938 158.202 368.593C157.613 369.707 157.166 370.897 156.873 372.133C148.003 368.735 137.601 374.628 133.751 383.377C132.561 385.995 132.046 388.895 132.258 391.788C128.436 390.638 124.364 390.804 120.64 392.263C116.915 393.721 113.736 396.394 111.569 399.889C109.402 403.384 108.363 407.515 108.603 411.676C108.843 415.836 110.352 419.806 112.905 423.001C105.327 419.568 95.539 422.936 91.3602 430.394C87.1814 437.853 89.1484 448.442 95.7002 453.723C84.6379 453.605 74.0898 462.48 71.8113 473.826C69.5328 485.171 75.7545 497.76 85.9166 502.34C58.7782 515.377 46.2526 554.104 60.2421 581.744C64.2272 589.632 70.2613 596.729 78.1713 600.026C85.609 603.129 94.8175 602.268 100.791 596.792C87.6054 610.222 82.254 631.592 87.5829 650.067C93.0614 669.036 109.52 684.01 128.215 687C146.909 689.989 166.887 680.855 177.514 664.458C169.048 682.169 182.384 705.93 200.996 709.337C219.609 712.744 238.671 697.968 243.782 678.903C243.647 699.801 262.064 718.818 281.997 718.361C301.93 717.905 319.531 698.061 318.524 677.18C324.748 696.914 345.805 710.139 365.334 706.583C384.862 703.026 400.427 683.128 399.947 662.365L399.916 662.136C399.861 662.144 399.806 662.152 399.751 662.159C399.696 662.168 399.641 662.176 399.586 662.184L399.473 662.201C399.338 662.223 399.204 662.243 399.069 662.262C386.755 664.064 373.944 665.307 362.101 661.334C358.934 660.279 355.527 658.446 354.641 655.094C353.928 652.412 355.129 649.507 356.93 647.47C358.379 645.832 360.191 644.616 361.996 643.403C362.436 643.108 362.876 642.814 363.309 642.514C378.836 631.782 388.195 611.947 386.927 592.497C387.279 592.095 387.637 591.695 387.995 591.295L388.083 591.197C387.625 591.331 387.167 591.457 386.702 591.575C376.69 594.194 365.546 595.446 355.834 590.953L355.489 590.536C352.772 593.011 350.054 595.476 347.339 597.93C339.804 604.752 332.119 611.668 323.03 615.917C320.981 616.869 318.61 617.68 316.568 616.711C313.123 615.083 313.214 609.945 314.189 606.113C317.514 593.124 324.591 581.575 332.021 570.607C333.829 567.942 335.664 565.295 337.524 562.668L337.472 562.628C337.461 561.329 337.434 560.041 337.407 558.761V558.759C337.263 551.874 337.124 545.24 339.655 538.607C341.045 535.121 342.484 531.674 343.971 528.268L342.635 527.623C333.415 529.171 324.614 532.75 316.809 538.123C309.006 543.496 302.376 550.542 297.358 558.796C296.374 560.433 295.196 562.305 293.357 562.51C291.046 562.762 289.402 560.252 288.516 558.001C283.983 546.459 285.013 533.343 287.571 521.147C288.823 515.166 290.451 509.279 292.442 503.523L292.132 503.405C277.79 499.18 261.993 507.193 253.076 519.7C244.16 532.208 241.068 548.3 240.483 563.9C238.623 553.313 226.971 546.943 216.793 548.414C206.616 549.885 198.053 557.25 191.471 565.52C195.926 556.597 191.411 544.583 182.983 539.744C174.555 534.905 163.606 536.62 155.74 542.411C159.347 538.053 161.695 532.706 162.505 526.999C163.316 521.291 162.558 515.46 160.318 510.188C158.079 504.917 154.453 500.424 149.863 497.238ZM100.791 596.792C101.132 596.43 101.492 596.083 101.851 595.737L101.852 595.736L101.876 595.714C101.534 596.091 101.166 596.454 100.791 596.792ZM288.168 598.42C282.667 592.332 274.743 587.899 266.551 588.721C259.172 589.462 252.023 595.384 250.682 603.069C248.168 600.811 245.137 599.25 241.868 598.55C237.807 597.681 233.588 598.185 229.818 599.991C226.048 601.798 222.922 604.811 220.891 608.6C218.86 612.388 218.029 616.754 218.518 621.069C218.59 621.717 219.151 622.179 219.768 622.103C220.385 622.026 220.826 621.439 220.753 620.792C220.321 616.973 221.057 613.108 222.854 609.756C224.651 606.404 227.417 603.736 230.753 602.138C234.09 600.54 237.824 600.093 241.418 600.863C245.012 601.633 248.28 603.579 250.751 606.421C251.064 606.78 251.555 606.902 251.988 606.726C252.422 606.552 252.707 606.115 252.709 605.629C252.726 598.22 259.461 591.804 266.764 591.071C274.053 590.34 281.338 594.294 286.533 600.044C286.96 600.516 287.672 600.537 288.124 600.089C288.575 599.64 288.595 598.894 288.168 598.42ZM125.549 579.165C125.942 579.668 125.873 580.412 125.392 580.825C122.758 583.091 120.762 586.067 119.619 589.431C118.476 592.797 118.229 596.425 118.903 599.926C119.577 603.428 121.149 606.67 123.448 609.307C125.747 611.943 128.688 613.872 131.954 614.889C133.447 615.354 135.142 615.507 136.603 615.21C138.057 614.914 139.17 614.204 139.764 613.037C140.007 612.56 140.528 612.317 141.028 612.447C141.528 612.578 141.881 613.048 141.882 613.588C141.902 618.65 143.298 623.601 145.908 627.859C148.517 632.119 152.231 635.508 156.614 637.631C160.997 639.754 165.867 640.521 170.652 639.844C175.436 639.166 179.937 637.071 183.626 633.805C184.101 633.384 184.811 633.447 185.212 633.945C185.613 634.443 185.554 635.187 185.079 635.608C181.063 639.164 176.162 641.444 170.954 642.183C165.744 642.921 160.442 642.085 155.671 639.774C150.898 637.462 146.854 633.772 144.013 629.135C141.657 625.289 140.208 620.925 139.771 616.402C138.943 616.97 137.997 617.33 137.033 617.527C135.149 617.91 133.083 617.703 131.313 617.152C127.655 616.013 124.361 613.852 121.787 610.899C119.211 607.947 117.451 604.315 116.696 600.394C115.941 596.472 116.218 592.408 117.499 588.64C118.779 584.871 121.014 581.539 123.964 579.001C124.444 578.588 125.154 578.661 125.549 579.165ZM119.662 499.85C119.05 499.733 118.464 500.158 118.353 500.799C118.241 501.44 118.646 502.055 119.258 502.172C121.102 502.525 122.819 503.397 124.227 504.693C125.635 505.99 126.681 507.664 127.252 509.536C127.823 511.407 127.898 513.406 127.47 515.319C127.042 517.232 126.126 518.987 124.82 520.397C124.514 520.727 124.419 521.214 124.578 521.644C124.736 522.074 125.118 522.368 125.557 522.397C128.213 522.572 130.764 523.556 132.893 525.228C135.024 526.901 136.641 529.19 137.548 531.814C138.455 534.437 138.611 537.282 137.997 539.997C137.384 542.712 136.027 545.18 134.094 547.099C133.643 547.546 133.623 548.294 134.05 548.767C134.477 549.24 135.19 549.261 135.641 548.813C137.893 546.579 139.473 543.704 140.188 540.541C140.903 537.379 140.721 534.066 139.665 531.01C138.609 527.954 136.724 525.288 134.243 523.339C132.324 521.832 130.113 520.805 127.778 520.323C128.662 518.975 129.303 517.463 129.662 515.859C130.184 513.529 130.092 511.095 129.396 508.816C128.701 506.538 127.428 504.499 125.713 502.921C123.999 501.341 121.907 500.28 119.662 499.85Z" fill="#171717"/>
</g>
</svg>
