<svg width="41" height="36" viewBox="0 0 41 36" fill="none" xmlns="http://www.w3.org/2000/svg">
<path d="M13.1683 17.6331H3.78828C3.94828 8.29309 5.78828 6.75309 11.5283 3.35309C12.1883 2.95309 12.4083 2.11309 12.0083 1.43309C11.9162 1.27564 11.7936 1.13812 11.6478 1.02853C11.5019 0.918945 11.3358 0.839495 11.1589 0.794814C10.982 0.750134 10.7981 0.741118 10.6177 0.768293C10.4373 0.795467 10.2641 0.858287 10.1083 0.95309C3.34828 4.95309 0.988281 7.39309 0.988281 19.0131V29.7931C0.988281 33.2131 3.76828 35.9731 7.16828 35.9731H13.1683C16.6883 35.9731 19.3483 33.3131 19.3483 29.7931V23.7931C19.3483 20.2931 16.6883 17.6331 13.1683 17.6331ZM34.8063 17.6331H25.4263C25.5863 8.29309 27.4263 6.75309 33.1663 3.35309C33.8263 2.95309 34.0463 2.11309 33.6463 1.43309C33.5521 1.27516 33.4275 1.13741 33.2799 1.02774C33.1323 0.91808 32.9644 0.838664 32.786 0.794061C32.6076 0.749458 32.4222 0.740547 32.2403 0.767838C32.0584 0.795129 31.8837 0.858085 31.7263 0.95309C24.9663 4.95309 22.6063 7.39309 22.6063 19.0331V29.8131C22.6063 33.2331 25.3863 35.9931 28.7863 35.9931H34.7863C38.3063 35.9931 40.9663 33.3331 40.9663 29.8131V23.8131C40.9863 20.2931 38.3263 17.6331 34.8063 17.6331Z" fill="#444444"/>
</svg>
